# xmcd
#
# Track frame offsets:
# 150
# 49500
# 89325
# 120375
# 148425
#
# Disc length: 2369 seconds
#
#
# Revision: 2
# Processed by: cddbd v1.5.1PL0 Copyright (c) Steve Scherf et al.
# Submitted via: FreeRIP 2.92 
#
DISCID=40093f05
DTITLE=Medwyn Goodall - The Four Horsemen
DYEAR=1994
DGENRE=New Age
TTITLE0=The Awakening
TTITLE1=The Sword Of Truth
TTITLE2=No More Secrets
TTITLE3=Elegy
TTITLE4=The Power And The Glory
EXTD=
EXTT0=
EXTT1=
EXTT2=
EXTT3=
EXTT4=
PLAYORDER=
